<svg version="1.0" id="Слой_1" xmlns="http://www.w3.org/2000/svg" x="0" y="0" viewBox="0 0 113.8 119.4" xml:space="preserve"><path d="M7 52.9c-4.7-5.1-7-11.2-7-17.7v33.5c0 18.2 17.3 32.9 57.2 32.9V68c-25.6.1-41.8-6-50.2-15.1z" fill="#a8a6a7"/><path d="M56.7 17.9v33.5c25.5 0 41.8 6.1 50.2 15.2 4.7 5.1 7 11.2 7 17.7V50.8c-.1-18.2-17.4-32.9-57.2-32.9z" fill="#65585f"/><path d="M105.6 70.7c-9.9 9.1-29.2 15.2-59.4 15.2v33.5c47.1 0 67.6-14.7 67.6-32.9V53c0 6.5-2.6 12.6-8.2 17.7zM0 32.9v33.5c0-6.5 2.7-12.6 8.2-17.7 9.9-9.1 29.2-15.2 59.4-15.2V0C20.5 0 0 14.7 0 32.9z" fill="#860809"/></svg>