<svg width="121" height="115" viewBox="0 0 121 115" fill="none" xmlns="http://www.w3.org/2000/svg">
<path d="M27.7943 89.1662C26.752 88.8809 25.7097 88.4689 24.6043 87.93C26.373 88.0568 27.9522 87.6764 29.3735 86.9791L27.7943 89.1662ZM28.6155 103.525C27.9838 103.335 27.3521 103.145 26.7204 102.891L26.9099 102.606C27.8259 102.574 28.7103 102.448 29.5315 102.226L28.6155 103.525ZM31.8055 104.191C31.1107 104.096 30.4474 103.969 29.721 103.811L31.237 101.655C32.8162 101.021 34.206 100.07 35.5009 98.9926L31.8055 104.191ZM35.3746 104.35C34.6166 104.381 33.8269 104.381 33.0373 104.318L41.0282 93.0967C43.0812 90.7194 45.1026 88.4689 47.5662 87.201L35.3746 104.35ZM77.0345 109.675C77.066 111.64 77.1608 113.035 76.9713 115C75.8343 114.715 74.8551 114.334 74.0023 113.891L77.0345 109.675ZM78.3294 102.67C78.2978 102.733 78.2663 102.828 78.2347 102.891C77.5398 104.318 77.1608 106.029 77.066 107.773L73.0548 113.383C72.4863 113.035 71.9809 112.623 71.5388 112.211L78.3294 102.67ZM81.709 92.7798C81.6774 93.0017 81.6142 93.2552 81.5826 93.4771C81.2668 94.9669 80.8246 96.5201 80.2561 98.1367L70.8439 111.355C70.8123 111.291 70.7492 111.228 70.7176 111.165C70.3386 110.657 70.0227 110.15 69.7384 109.58L81.709 92.7798ZM82.2143 86.884C82.2459 87.93 82.2143 89.1028 82.0564 90.4024L69.2015 108.47C68.9173 107.741 68.6962 106.949 68.5067 106.125L82.2143 86.884ZM87.3942 84.7602C87.3942 85.7745 87.331 86.6621 87.1731 87.4228C87.0783 87.9617 86.952 88.4372 86.7941 88.8809L85.4043 90.8462C85.2464 90.0538 85.0253 89.2613 84.6779 88.564L87.3942 84.7602ZM86.8572 80.3542C87.0783 81.3368 87.2047 82.2244 87.2994 83.0485L84.141 87.4862C83.7619 86.9474 83.3198 86.4719 82.7197 86.1549L86.8572 80.3542ZM101.007 91.4802C101.576 92.7164 102.239 93.4771 103.092 93.5405C101.733 94.0794 100.596 94.016 99.5542 93.5405L101.007 91.4802ZM99.87 87.8983C100.06 88.7541 100.281 89.5783 100.533 90.2756L98.6066 92.97C98.1013 92.6213 97.6591 92.1775 97.1853 91.6703L99.87 87.8983ZM99.0804 83.841C99.2383 84.7602 99.3962 85.6477 99.5542 86.4719L96.4589 90.8145C96.0483 90.3073 95.6693 89.7368 95.2903 89.1662L99.0804 83.841ZM98.4171 79.5935C98.5751 80.5127 98.7014 81.4002 98.8277 82.2878L94.6902 88.1202C94.3111 87.5496 93.9637 86.9474 93.5847 86.3451L98.4171 79.5935ZM97.7223 75.4093C97.8802 76.2969 98.0381 77.1844 98.1645 78.0719L92.953 85.3942C92.574 84.8236 92.195 84.253 91.7844 83.7142L97.7223 75.4093ZM96.9011 71.4154C97.0906 72.2078 97.2801 73.0637 97.438 73.9512L91.0895 82.8583C90.6474 82.3512 90.2052 81.8757 89.7314 81.4953C89.7314 81.4636 96.9011 71.4154 96.9011 71.4154ZM95.764 67.8018C96.0483 68.4992 96.301 69.2282 96.5221 70.0524L88.847 80.8297C88.2785 80.481 87.6784 80.2274 87.0151 80.1006L95.764 67.8018ZM100.312 66.5973C100.754 67.675 101.102 68.7528 101.354 70.0524C100.565 69.5135 99.8068 68.9747 98.9541 68.4992L100.312 66.5973ZM98.8593 63.4592C99.2067 64.1566 99.5226 64.7905 99.8068 65.4245L97.975 67.992C97.3748 67.7384 96.7747 67.5165 96.0799 67.358L98.8593 63.4592ZM119.926 64.8539C120.463 65.9 120.81 67.0728 121 68.4358C120.495 67.5165 119.768 66.8826 118.821 66.4071L119.926 64.8539ZM118.063 62.3181C118.536 62.7936 118.947 63.3007 119.326 63.8396L117.778 65.995C117.178 65.8049 116.483 65.6464 115.789 65.5196L118.063 62.3181ZM115.757 60.3845C115.852 60.4479 115.946 60.5113 116.041 60.5747C116.483 60.8917 116.894 61.2087 117.273 61.5573L114.588 65.3294C113.894 65.2343 113.135 65.1709 112.377 65.1392L115.757 60.3845ZM113.23 58.7679C113.799 59.1166 114.336 59.4336 114.841 59.7823L111.082 65.0758C110.356 65.0441 109.598 64.9807 108.84 64.949L113.23 58.7679ZM110.672 57.2464C111.24 57.5634 111.777 57.9121 112.314 58.2291L107.577 64.8539C106.85 64.7905 106.124 64.7271 105.397 64.6003L110.672 57.2464ZM108.082 55.6615C108.619 56.0102 109.187 56.3589 109.724 56.6758L104.229 64.4101C103.534 64.2834 102.871 64.1566 102.176 63.9664L108.082 55.6615ZM105.618 53.9815C105.903 54.2034 106.187 54.3936 106.471 54.6155C106.692 54.774 106.945 54.9325 107.166 55.091L101.07 63.6811C100.439 63.4909 99.8384 63.2373 99.2383 62.9837L105.618 53.9815ZM103.376 51.9529C103.818 52.3966 104.292 52.8404 104.797 53.2842L68.2224 104.666C68.0645 103.367 68.2856 102.067 68.6962 100.704L103.376 51.9529ZM101.26 49.7657C101.386 49.8925 101.544 50.051 101.67 50.1778C101.986 50.4948 102.27 50.8434 102.618 51.1604L70.0859 96.8688C70.7176 95.2205 71.2861 93.4454 71.5388 91.5435L101.26 49.7657ZM79.277 78.801L69.6437 92.336C68.4435 92.9383 67.1801 93.7307 65.8852 94.7767C65.6009 94.9986 65.3166 95.2522 65.0324 95.5058L74.6656 81.9708C76.308 81.0833 77.8241 80.0055 79.277 78.801ZM99.0172 47.7687C99.5226 48.1174 99.9964 48.5295 100.502 49.005L88.1522 66.3754C88.8155 64.632 89.3208 62.857 89.6367 60.9868L99.0172 47.7687ZM102.839 42.3801C103.439 42.7288 103.976 43.0775 104.45 43.4261L103.344 44.9793C102.744 45.1061 102.113 45.2329 101.512 45.3914C101.165 45.4865 100.849 45.5499 100.502 45.645L102.839 42.3801ZM72.581 83.0485L60.2 100.482C60.2631 98.9609 60.421 97.693 60.6421 96.5518L69.3279 84.3481C70.4333 83.9678 71.5072 83.5557 72.581 83.0485ZM100.154 40.9854C100.502 41.1439 100.818 41.3024 101.133 41.4609C101.386 41.5877 101.639 41.7144 101.891 41.8412L98.7014 46.3106C98.2908 46.5008 97.9118 46.691 97.5328 46.9446C97.7223 47.008 97.9118 47.1031 98.1013 47.1665L89.9841 58.6094C90.0788 57.6268 90.142 56.6125 90.142 55.6298C90.142 55.4713 90.142 55.2812 90.142 55.1227L100.154 40.9854ZM67.6223 84.8236L61.6844 93.1601C62.1266 92.1775 62.6635 91.2266 63.2952 90.1805C62.6951 90.022 62.1266 89.9903 61.5581 90.022L64.8429 85.3942C65.822 85.2674 66.7379 85.0772 67.6223 84.8236ZM97.4696 39.6224C98.0697 39.9394 98.6382 40.2246 99.1752 40.5099L90.0157 53.3793C89.9525 52.4283 89.8262 51.4774 89.6682 50.5582L97.4696 39.6224ZM63.39 85.6161L60.0104 90.3707C58.6523 90.8145 57.3258 91.702 55.9361 92.7798L60.9264 85.7745C61.7792 85.7745 62.6004 85.7111 63.39 85.6161ZM94.8797 38.0692C95.4166 38.4179 95.9851 38.7665 96.5221 39.0518L89.384 49.1001C89.1945 48.2759 89.005 47.4835 88.7523 46.691L94.8797 38.0692ZM118.284 31.0323C118.884 31.3809 119.421 31.6979 119.958 31.9832L119.926 32.0466C119.294 32.0466 118.505 32.0149 117.652 31.9515L118.284 31.0323ZM115.599 29.6375C116.199 29.9228 116.768 30.2081 117.336 30.4934L116.357 31.8881C115.82 31.8564 115.283 31.8247 114.715 31.8247C114.494 31.8247 114.273 31.8247 114.051 31.8247L115.599 29.6375ZM112.662 28.5915C113.325 28.75 113.957 28.9719 114.557 29.2255L112.662 31.8881C111.809 31.9198 110.956 32.0149 110.135 32.1417L112.662 28.5915ZM109.282 28.1477H109.314C110.072 28.1477 110.798 28.2111 111.493 28.3379L108.556 32.4587C108.366 32.5221 108.177 32.5854 107.956 32.6488C106.534 33.1243 106.724 34.7092 105.492 36.0405C104.924 36.6745 104.039 37.2133 102.555 37.5937L109.282 28.1477ZM105.65 28.0843C106.44 28.116 107.198 28.116 107.956 28.1477L101.039 37.879C100.312 37.9741 99.5226 38.0375 98.5751 38.0375L105.65 28.0843ZM102.113 27.9259C102.871 27.9576 103.629 28.0209 104.387 28.0526L97.2801 38.0375C96.5852 38.0375 95.8272 37.9741 95.006 37.9424L102.113 27.9259ZM59.5998 85.7745L52.5249 95.696C50.851 97.1858 49.0506 98.739 47.0292 100.102L57.3258 85.6161C58.0838 85.7428 58.8418 85.7745 59.5998 85.7745ZM98.6066 27.704C99.3331 27.7674 100.091 27.7991 100.849 27.8625L88.3417 45.4548C88.089 44.7257 87.8048 44.0284 87.4889 43.3627L98.6066 27.704ZM56.1256 85.5209L44.692 101.56C43.5865 102.162 42.4179 102.701 41.2177 103.145L54.0094 85.1723C54.7043 85.2991 55.3991 85.4258 56.1256 85.5209ZM95.1008 27.4187C95.8272 27.4821 96.5536 27.5455 97.3117 27.6089L86.9204 42.2216C86.6046 41.5877 86.2571 40.9537 85.9097 40.3514L95.1008 27.4187ZM52.8724 84.887L39.5121 103.684C38.6278 103.937 37.7118 104.096 36.7959 104.223L50.9457 84.3481C51.5774 84.5383 52.2407 84.7285 52.8724 84.887ZM91.6265 27.1334C92.3213 27.1968 93.0794 27.2602 93.8374 27.2919L85.278 39.3054C84.899 38.7348 84.52 38.1643 84.1094 37.6254L91.6265 27.1334ZM94.1848 23.5515C94.7849 23.6783 95.5114 23.8051 95.8588 23.8685C95.4482 23.8685 94.3112 23.9636 93.8374 24.0587L94.1848 23.5515ZM49.8718 83.9678L47.9768 86.5987C47.3767 86.2183 46.6502 86.1866 45.829 86.3451L48.0399 83.207C48.64 83.4923 49.2717 83.7459 49.8718 83.9678ZM90.9316 22.981C91.6896 23.0761 92.3845 23.2029 93.0478 23.3297L92.2266 24.4708C91.5633 24.661 90.9316 24.8195 90.3947 25.0413C89.1313 25.5168 88.3733 26.1191 88.7839 27.0066C89.2576 27.0383 89.7946 27.07 90.3947 27.1017L83.4777 36.8013C83.0671 36.2941 82.6249 35.7869 82.1827 35.3115L90.9316 22.981ZM47.0608 82.7632L44.1866 86.8206C43.2075 87.1692 42.1337 87.613 40.9334 88.0885L45.3553 81.8757C45.9238 82.161 46.4923 82.478 47.0608 82.7632ZM87.331 22.8542C88.0258 22.7908 88.7523 22.7908 89.4472 22.8542C89.5103 22.8542 89.6051 22.8542 89.6682 22.8542L81.4247 34.4556C80.9825 34.0119 80.5088 33.5364 80.035 33.1243L87.331 22.8542ZM44.4077 81.3051L39.1331 88.7224C38.2172 89.0077 37.2696 89.293 36.2274 89.5149L42.8285 80.2591C43.3339 80.6078 43.8708 80.9565 44.4077 81.3051ZM83.0671 23.71C83.0987 23.8051 83.1618 23.9319 83.225 24.027C84.0146 23.5515 84.9306 23.2346 85.8781 23.0444L79.2138 32.3953C78.7084 31.9832 78.2347 31.6028 77.6977 31.2224L83.0671 23.71ZM91.8476 11.3479C92.2266 10.9992 92.6372 10.5871 93.0162 10.1433C91.8792 15.1516 88.8786 17.5289 86.415 19.1772C86.3203 19.2406 86.2255 19.304 86.0992 19.3674L91.8476 11.3479ZM41.9757 79.5935L34.7429 89.7368C33.9533 89.8319 33.1321 89.8636 32.3109 89.8636L40.4913 78.3889C40.965 78.801 41.4704 79.2131 41.9757 79.5935ZM85.9413 14.4859C86.9836 14.2324 88.0574 13.8837 89.0997 13.3131L76.7818 30.6202C76.2449 30.2715 75.7079 29.9228 75.171 29.6059L85.9413 14.4859ZM42.0389 17.4655C42.6074 15.8807 43.3654 14.3275 44.4709 12.9645C46.3028 10.6822 48.0399 8.65353 49.6192 6.84675L42.0389 17.4655ZM40.0175 25.4851C40.2702 24.5342 40.4913 23.5199 40.7123 22.4738C40.8387 21.8399 40.9966 21.2376 41.123 20.6036L55.7781 0C56.1887 0.665656 56.5046 1.33132 56.6941 1.99697L40.0175 25.4851ZM31.1107 12.172C30.9212 11.6331 30.6685 11.1577 30.2895 10.6822C30.858 10.809 31.3634 10.9675 31.8371 11.126L31.1107 12.172ZM31.237 17.1803C31.4897 15.8807 31.5844 14.7078 31.4265 13.5984L32.8478 11.6014C33.4479 11.9184 33.9849 12.2671 34.427 12.6792L31.237 17.1803ZM28.9629 25.5485C29.3419 24.1538 29.7525 22.8225 30.1316 21.5229C30.2895 20.984 30.4474 20.4768 30.5737 19.9697L35.2167 13.4399C35.6588 14.0105 36.0063 14.6127 36.2589 15.2467L28.9629 25.5485ZM27.6364 32.5538C27.7627 31.1273 27.9838 29.7326 28.2681 28.3696L36.6695 16.578C36.8906 17.4656 36.9854 18.4482 37.017 19.3991L27.6364 32.5538ZM16.6766 32.4587C17.2135 30.3032 18.2874 28.116 20.0877 25.9289C20.4983 25.4217 21.3195 24.2806 21.8564 23.6466C21.5406 24.3757 21.4774 25.0413 21.4774 25.7387L16.6766 32.4587ZM16.3607 38.0692C16.2344 37.0232 16.2028 35.9454 16.2976 34.8677L21.4774 27.5772C21.4774 28.7183 21.4458 29.796 21.5406 30.7787L16.3607 38.0692ZM17.2451 42.0314C16.9924 41.239 16.7713 40.4465 16.6134 39.6224L21.8249 32.3002C22.0144 32.9975 22.3302 33.6315 22.804 34.202L17.2451 42.0314ZM18.5085 45.3914C18.2558 44.8525 18.0347 44.3137 17.8136 43.7431C17.7505 43.5846 17.6873 43.4578 17.6557 43.2993L23.562 34.9945C24.0042 35.3749 24.5411 35.7235 25.1728 36.0405L18.5085 45.3914ZM19.993 48.4661C19.6771 47.8321 19.3613 47.1982 19.0454 46.5325L26.1835 36.4843C26.6257 36.6745 27.0995 36.833 27.6364 36.9915C27.5732 36.1673 27.5416 35.3749 27.5416 34.5824L36.9854 21.3327C36.9222 22.6006 36.7959 23.8368 36.7011 25.0097L19.993 48.4661ZM21.5406 51.4457C21.2247 50.8434 20.8773 50.1778 20.5615 49.5438L36.6064 27.0066C36.5748 28.0843 36.6695 29.0353 36.9854 29.796L21.5406 51.4457ZM22.9935 54.5838C22.7408 53.9498 22.425 53.2525 22.0775 52.5551L56.9783 3.51847C57.1047 4.94488 56.8204 6.30789 56.3782 7.6709L22.9935 54.5838ZM9.349 58.2925C8.9384 57.6585 8.68572 56.9294 8.55939 56.0736C9.09632 56.5491 9.72801 56.7393 10.4229 56.771L9.349 58.2925ZM11.5915 60.2894C11.023 59.9724 10.486 59.5921 10.0439 59.1483L11.8758 56.5808C12.7601 56.3906 13.7392 56.1053 14.7499 55.82L11.5915 60.2894ZM14.4025 61.4939C13.7708 61.272 13.1391 61.0502 12.539 60.7966L16.2976 55.503C17.0872 55.3763 17.9084 55.3128 18.7296 55.3762L14.4025 61.4939ZM17.4662 62.3498C17.1188 62.2547 16.7713 62.1596 16.4239 62.0645C16.1081 61.9694 15.7922 61.906 15.508 61.8109L19.9614 55.5664C20.5615 55.7249 21.1616 55.9468 21.7933 56.2955L17.4662 62.3498ZM37.9961 35.3432L54.7358 11.8233C54.1357 13.3765 53.7251 14.8346 53.9462 16.2293L43.934 30.3032C41.7546 31.6979 39.7648 33.4096 37.9961 35.3432ZM20.5299 63.2373C19.8982 63.0154 19.2665 62.8253 18.6032 62.6668L22.6776 56.9295C23.0251 57.183 23.3409 57.4683 23.6883 57.7853C23.7199 57.183 23.6567 56.5491 23.4357 55.8517L33.8585 41.2073C32.6267 43.4578 31.6792 45.8986 31.0475 48.4661L20.5299 63.2373ZM46.2396 28.9402L54.3884 17.4972C54.6411 18.0044 54.9885 18.4799 55.4939 18.9554C55.9361 18.3848 56.3466 17.8776 56.7888 17.4022L49.6823 27.387C48.5137 27.8308 47.3451 28.3696 46.2396 28.9402ZM23.2777 64.5052C22.7724 64.1566 22.1723 63.8713 21.5722 63.6177L30.5106 51.0336C30.3211 52.2698 30.1947 53.5378 30.1631 54.8057L23.2777 64.5052ZM51.4511 26.7847L60.3579 14.2641C61.6528 13.3765 62.9162 12.7109 64.1796 12.2037L54.2937 26.0874C53.3461 26.2776 52.367 26.4994 51.4511 26.7847ZM25.3307 66.8192C25.0465 66.1852 24.6359 65.6464 24.1621 65.1709L30.1947 56.6758C30.2263 57.6902 30.3211 58.6728 30.4474 59.6238L25.3307 66.8192ZM0.884365 70.1475C0.568521 69.5135 0.28426 68.8161 0 68.0871L0.0631679 67.992C0.663272 68.309 1.26338 68.5626 1.8319 68.8162L0.884365 70.1475ZM2.62151 72.9052C2.21091 72.398 1.8319 71.8275 1.48447 71.1935L2.90577 69.2282C3.56904 69.4818 4.16915 69.7037 4.80083 69.8939L2.62151 72.9052ZM4.70608 75.124C4.23231 74.712 3.75855 74.2682 3.31637 73.7927L5.84312 70.2109C6.56956 70.401 7.26442 70.5278 7.89611 70.6229L4.70608 75.124ZM7.20125 76.7723C6.63273 76.487 6.0958 76.1384 5.55886 75.758L9.15949 70.6863C10.0123 70.718 10.8335 70.6863 11.5599 70.5912L7.20125 76.7723ZM10.0754 77.9134C9.44375 77.7233 8.81206 77.5014 8.21196 77.2478L13.1391 70.3059C14.2446 70.0207 15.2237 69.6086 16.1081 69.1331C16.2344 69.0697 16.3292 69.0063 16.4239 68.9747L10.0754 77.9134ZM13.2655 78.6108C12.5706 78.5157 11.8757 78.3889 11.1809 78.2304L18.6664 67.7384C19.8034 67.1045 20.8457 66.5656 21.9828 66.3754L13.2655 78.6108ZM16.7398 78.8961C15.9817 78.8644 15.2237 78.8327 14.4973 78.7693L23.3409 66.3437C23.941 66.4071 24.5727 66.5973 25.2676 66.946L16.7398 78.8961ZM55.8097 25.8021L65.9483 11.538C66.3273 11.4113 66.6748 11.3162 67.0538 11.2211C67.6539 11.0626 68.254 10.9358 68.8225 10.809L58.3365 25.5485C57.5153 25.6119 56.6625 25.707 55.8097 25.8021ZM20.4036 78.8644C19.6455 78.8961 18.8875 78.8961 18.1295 78.8961H18.0347L30.6685 61.1453C30.8264 62.0011 31.0159 62.8252 31.237 63.6494L20.4036 78.8644ZM59.7262 25.5168L70.4017 10.5237C71.3808 10.3335 72.2968 10.175 73.1496 9.95315L62.0318 25.5485C61.4002 25.5168 60.7685 25.4851 60.1368 25.4851C59.9789 25.4851 59.8525 25.5168 59.7262 25.5168ZM24.2253 78.7059C23.4357 78.7376 22.6145 78.801 21.7933 78.8327L31.6476 64.9807C31.9003 65.7098 32.153 66.4388 32.4372 67.1679L24.2253 78.7059ZM63.2636 25.6753L74.8235 9.44598C75.2657 9.28749 75.6763 9.06561 76.0553 8.84372C75.1394 11.443 73.4654 13.3448 72.2968 15.0248C71.5072 16.1659 70.9071 17.1803 70.9387 18.258L65.4114 26.024C64.7165 25.8338 63.9901 25.7387 63.2636 25.6753ZM28.0154 78.5474C27.2258 78.5791 26.4362 78.6108 25.615 78.6425L32.9742 68.309C33.29 68.9746 33.6059 69.6086 33.9533 70.2426L28.0154 78.5474ZM66.58 26.2142L71.3177 19.5893C71.3493 19.6527 71.3808 19.7161 71.4124 19.7795C72.8969 18.4482 74.2866 17.4972 75.6132 16.8316L68.5382 26.7213C67.9066 26.5312 67.2433 26.341 66.58 26.2142ZM31.616 78.6425C30.8896 78.5791 30.1316 78.5474 29.3419 78.5474L34.5218 71.2569C34.8692 71.8274 35.2482 72.4297 35.6588 72.9686L31.616 78.6425ZM69.6437 27.07L77.5082 16.0391C78.4873 15.6905 79.4349 15.4686 80.3508 15.3101L71.5072 27.7674C70.8755 27.5138 70.2754 27.2602 69.6437 27.07ZM34.8692 79.2131C34.2375 79.0229 33.5743 78.8644 32.8478 78.7693L36.3221 73.8878C36.7327 74.4267 37.1433 74.9338 37.5855 75.441L34.8692 79.2131ZM72.5179 28.2111L81.8353 15.0882C82.1511 15.0565 82.4986 14.9931 82.8144 14.9614C83.3514 14.898 83.8883 14.8346 84.4252 14.7395L74.2234 29.067C73.6549 28.75 73.0864 28.4647 72.5179 28.2111ZM37.3328 80.4493C36.8906 80.1323 36.4169 79.847 35.9115 79.6251L38.3119 76.2652C38.7541 76.7406 39.1963 77.1844 39.6701 77.6282L31.0159 89.7685C30.3211 89.7051 29.6262 89.61 28.8998 89.4198L31.7424 85.4259C33.7322 83.9678 35.5009 82.0342 37.3328 80.4493Z" fill="#FF8200"/>
<path d="M89.8124 59.2748C91.7698 42.6717 79.9452 27.6197 63.4015 25.6553C46.8578 23.6908 31.8597 35.5579 29.9023 52.161C27.9449 68.7641 39.7695 83.8161 56.3132 85.7805C72.8569 87.745 87.855 75.8779 89.8124 59.2748Z" fill="white"/>
<path d="M43.776 43.4893C58.7786 53.3157 61.0843 68.911 41.4703 78.3253C68.6645 72.1442 77.7609 44.9474 75.929 31.2856C72.7705 45.2327 63.99 51.8259 43.776 43.4893Z" fill="#FF8200"/>
<g opacity="0.07843">
<g opacity="0.07843">
<path opacity="0.07843" d="M43.776 43.4893C58.7786 53.3157 61.0843 68.911 41.4703 78.3253C68.6645 72.1442 77.7609 44.9474 75.929 31.2856C72.7705 45.2327 63.99 51.8259 43.776 43.4893Z" stroke="#10069F" stroke-width="2.158"/>
</g>
</g>
<path d="M66.9906 39.3688C66.9906 42.919 64.0217 45.8352 60.3263 45.8352C56.6625 45.8352 53.662 42.9507 53.662 39.3688C53.662 35.8187 56.6309 32.9025 60.3263 32.9025C63.9901 32.9025 66.9906 35.787 66.9906 39.3688Z" fill="#0085CA"/>
<path d="M58.7786 45.5175C55.4623 44.6616 53.2829 41.4918 53.883 38.3537C54.6727 34.1062 59.2524 31.824 63.232 33.6941C65.5061 34.7719 66.8643 36.8956 66.8643 39.4315C66.8643 42.7597 64.2111 45.4541 60.7369 45.6442C60.0736 45.7076 59.2208 45.6442 58.7786 45.5175Z" fill="#FF8200"/>
<path d="M58.526 45.0112C56.852 44.4724 55.3044 43.1728 54.578 41.6196C54.2305 40.8905 54.1674 40.5735 54.1674 39.3373C54.1674 38.1011 54.2305 37.7841 54.578 37.0234C54.8306 36.5162 55.3676 35.7872 55.8413 35.3117C58.3997 32.8075 62.4109 32.8709 64.9061 35.4385C66.0115 36.5796 66.359 37.4037 66.4537 39.052C66.5169 40.0347 66.4537 40.5735 66.2642 41.1124C65.6957 42.7924 64.3375 44.1554 62.632 44.7894C61.4634 45.2331 59.5367 45.3282 58.526 45.0112Z" fill="#0085CA"/>
<path d="M45.6078 76.5508C45.6078 76.5191 46.3027 76.0119 47.1238 75.4414C50.0612 73.4761 53.0617 70.2429 54.3567 67.6754C57.7362 60.9237 55.6201 53.126 48.6715 46.8182C47.7555 45.9623 46.9975 45.265 47.0291 45.2333C47.0607 45.2016 47.8819 45.4235 48.861 45.7404C53.2512 47.1351 58.0205 47.8008 61.2421 47.4204C65.0322 46.9766 67.6537 45.8355 70.1489 43.4899C72.3598 41.4295 73.6548 39.3374 75.0761 35.6605L75.8341 33.7269L75.7393 34.9631C75.6762 35.6605 75.5814 37.0869 75.5183 38.1329C75.2024 43.3631 73.1494 50.1464 70.1805 55.6936C65.2217 64.9811 57.0729 72.3984 47.8503 75.9168C46.1131 76.5825 45.6078 76.741 45.6078 76.5508Z" fill="#0085CA"/>
</svg>
