<?xml version="1.0" encoding="utf-8"?>
<!-- Generator: Adobe Illustrator 22.0.1, SVG Export Plug-In . SVG Version: 6.00 Build 0)  -->
<svg version="1.0" id="Слой_1" xmlns="http://www.w3.org/2000/svg" xmlns:xlink="http://www.w3.org/1999/xlink" x="0px" y="0px"
	 viewBox="0 0 113.8 119.4" style="enable-background:new 0 0 113.8 119.4;" xml:space="preserve">
<style type="text/css">
	.st0{fill:#A8A6A7;}
	.st1{fill:#65585F;}
	.st2{fill:#860809;}
</style>
<path class="st0" d="M7,52.9c-4.7-5.1-7-11.2-7-17.7v33.5c0,18.2,17.3,32.9,57.2,32.9V68.6v-0.6C31.6,68.1,15.4,62,7,52.9z"/>
<path class="st1" d="M56.7,17.9v32.9v0.6c25.5,0,41.8,6.1,50.2,15.2c4.7,5.1,7,11.2,7,17.7V50.8C113.8,32.6,96.5,17.9,56.7,17.9z"/>
<path class="st2" d="M105.6,70.7c-9.9,9.1-29.2,15.2-59.4,15.2v0.6v32.9c47.1,0,67.6-14.7,67.6-32.9V53
	C113.8,59.5,111.2,65.6,105.6,70.7z"/>
<path class="st2" d="M0,32.9v33.5c0-6.5,2.7-12.6,8.2-17.7c9.9-9.1,29.2-15.2,59.4-15.2v-0.6V0C20.5,0,0,14.7,0,32.9z"/>
</svg>
